<?xml version="1.0" encoding="iso-8859-1"?>
<!-- Generator: Adobe Illustrator 19.0.0, SVG Export Plug-In . SVG Version: 6.00 Build 0)  -->
<svg version="1.1" id="Layer_1" xmlns="http://www.w3.org/2000/svg" xmlns:xlink="http://www.w3.org/1999/xlink" x="0px" y="0px"
	 viewBox="0 0 501.389 501.389" style="enable-background:new 0 0 501.389 501.389;" xml:space="preserve">
<g>
	<g>
		<g>
			<path d="M501.12,420.818c-3.093-33.28-30.933-58.24-63.787-58.24c-31.253,0-57.813,22.613-63.04,53.333H131.52
				c-43.093,0-78.187-33.493-78.187-74.667s35.093-74.667,78.187-74.667h248.853c54.933,0,99.52-43.093,99.52-96
				s-44.693-96-99.52-96H207.04l45.76-45.76c4.053-4.267,3.947-10.987-0.213-15.04c-4.16-3.947-10.667-3.947-14.827,0l-64,64
				c-4.16,4.16-4.16,10.88,0,15.04l64,64c4.267,4.053,10.987,3.947,15.04-0.213c3.947-4.16,3.947-10.667,0-14.827l-45.76-45.867
				h173.333c43.093,0,78.187,33.493,78.187,74.667s-35.093,74.667-78.187,74.667H131.52c-54.933,0-99.52,43.093-99.52,96
				s44.693,96,99.52,96h242.773c5.973,35.52,40.213,59.2,75.84,52.053C481.92,482.898,504.107,453.138,501.12,420.818z
				 M437.333,469.138c-23.573,0-42.667-19.093-42.667-42.667c0-23.573,19.093-42.667,42.667-42.667S480,402.898,480,426.471
				C480,450.044,460.907,469.138,437.333,469.138z"/>
			<path d="M128,85.138c0-35.307-28.693-64-64-64c-35.307,0-64,28.693-64,64c0,35.307,28.693,64,64,64
				C99.307,149.138,127.893,120.551,128,85.138z M21.333,85.138c0-23.573,19.093-42.667,42.667-42.667
				c23.573,0,42.667,19.093,42.667,42.667c0,23.573-19.093,42.667-42.667,42.667C40.427,127.804,21.333,108.711,21.333,85.138z"/>
		</g>
	</g>
</g>
<g>
</g>
<g>
</g>
<g>
</g>
<g>
</g>
<g>
</g>
<g>
</g>
<g>
</g>
<g>
</g>
<g>
</g>
<g>
</g>
<g>
</g>
<g>
</g>
<g>
</g>
<g>
</g>
<g>
</g>
</svg>
