<?xml version="1.0" encoding="iso-8859-1"?>
<!-- Generator: Adobe Illustrator 19.0.0, SVG Export Plug-In . SVG Version: 6.00 Build 0)  -->
<svg version="1.1" id="Layer_1" xmlns="http://www.w3.org/2000/svg" xmlns:xlink="http://www.w3.org/1999/xlink" x="0px" y="0px"
	 viewBox="0 0 512 512" style="enable-background:new 0 0 512 512;" xml:space="preserve">
<g>
	<g>
		<path d="M503.465,494.933h-8.533V435.2c0-4.71-3.814-8.533-8.533-8.533h-8.533v-59.733c0-4.71-3.814-8.533-8.533-8.533h-17.067
			V93.875c0-0.367-0.128-0.717-0.171-1.084c-0.051-0.367-0.085-0.717-0.179-1.084c-0.043-0.179-0.026-0.358-0.085-0.538
			L423.354,5.837C422.194,2.355,418.926,0,415.256,0h-28.476c-3.678,0-6.938,2.355-8.098,5.837l-26.53,79.505H8.532
			c-3.072,0-5.905,1.655-7.424,4.326c-1.51,2.679-1.476,5.956,0.111,8.602l51.2,85.333c1.544,2.569,4.318,4.139,7.313,4.139h42.667
			v13.781c-10.982,12.262-17.067,27.887-17.067,44.484V256c0,4.719,3.823,8.533,8.533,8.533h8.533v9.745
			c-14.677,3.823-25.6,17.067-25.6,32.922c0,13.611,8.055,25.284,19.601,30.763l-40.926,54.571H34.132
			c-4.71,0-8.533,3.823-8.533,8.533v68.267c0,4.719,3.823,8.533,8.533,8.533h153.6c4.719,0,8.533-3.814,8.533-8.533v-68.267
			c0-4.71-3.814-8.533-8.533-8.533h-21.333l-48.64-64.853c-0.102-0.128-0.273-0.171-0.375-0.299c-1.57-1.86-3.823-3.115-6.451-3.115
			c-9.412,0-17.067-7.654-17.067-17.067s7.654-17.067,17.067-17.067c4.719,0,8.533-3.814,8.533-8.533v-17.067h8.533
			c4.719,0,8.533-3.814,8.533-8.533v-9.992c0-16.597-6.076-32.222-17.067-44.484v-13.781h230.332l0.068,170.658h-17.067
			c-4.71,0-8.533,3.823-8.533,8.533v59.733h-8.533c-4.71,0-8.533,3.823-8.533,8.533v59.733h-51.2c-4.71,0-8.533,3.823-8.533,8.533
			c0,4.719,3.823,8.533,8.533,8.533h59.733h170.667h17.067c4.719,0,8.533-3.814,8.533-8.533
			C511.999,498.756,508.184,494.933,503.465,494.933z M110.932,347.025l34.133,45.508H76.799L110.932,347.025z M340.649,102.409
			l-16.384,20.471l-16.375-20.471H340.649z M272.28,102.409l-16.333,20.412l-16.324-20.412H272.28z M204.014,102.409L187.63,122.88
			l-16.375-20.471H204.014z M135.747,102.409l-16.384,20.471l-16.375-20.471H135.747z M81.134,170.675H64.57l-40.96-68.267h57.523
			l27.307,34.133L81.134,170.675z M110.958,170.675c0,0-0.017-0.009-0.026-0.009l-0.009,0.009h-7.936l16.375-20.48l16.384,20.48
			H110.958z M130.294,136.542l23.202-29.013l23.211,29.013l-23.211,29.005L130.294,136.542z M171.254,170.675l16.375-20.48
			l16.384,20.48H171.254z M198.561,136.542l23.202-29.013l23.211,29.013l-23.211,29.005L198.561,136.542z M239.623,170.675
			l16.324-20.412l16.333,20.412H239.623z M266.93,136.542l23.202-29.013l23.211,29.013l-23.211,29.005L266.93,136.542z
			 M307.89,170.675l16.375-20.48l16.384,20.48H307.89z M335.197,136.542l14.575-18.227l0.017,36.471L335.197,136.542z
			 M392.925,17.067h16.179L433.62,90.53l-32.555,22.793l-32.64-22.852L392.925,17.067z M373.281,213.333l27.784-19.448
			l27.793,19.448l-27.793,19.456L373.281,213.333z M428.858,273.067l-27.793,19.456l-27.784-19.456l27.784-19.447L428.858,273.067z
			 M373.281,153.6l27.784-19.448l27.793,19.448l-27.793,19.456L373.281,153.6z M366.932,110.259l19.26,13.474l-19.26,13.483V110.259
			z M366.864,180.216c0.008-0.102-0.009-0.205,0-0.316v-0.333c0.008-0.128,0.068-0.23,0.068-0.358v-9.216l19.26,13.474
			l-19.319,13.525L366.864,180.216z M366.881,229.692l19.311,13.508l-19.302,13.508L366.881,229.692z M366.906,289.434l19.285,13.5
			l-19.277,13.491L366.906,289.434z M435.199,358.4h-68.267l-0.009-21.146l34.142-23.902l34.133,23.893V358.4z M435.199,316.416
			l-19.251-13.483l19.251-13.474V316.416z M435.199,256.683L415.948,243.2l19.251-13.474V256.683z M435.199,196.949l-19.251-13.483
			l19.251-13.474V196.949z M435.199,137.216l-19.251-13.483l19.251-13.474V137.216z"/>
	</g>
</g>
<g>
</g>
<g>
</g>
<g>
</g>
<g>
</g>
<g>
</g>
<g>
</g>
<g>
</g>
<g>
</g>
<g>
</g>
<g>
</g>
<g>
</g>
<g>
</g>
<g>
</g>
<g>
</g>
<g>
</g>
</svg>
